<svg width="343" height="52" viewBox="0 0 343 52" fill="none" xmlns="http://www.w3.org/2000/svg">
<rect x="1" y="1" width="341" height="50" fill="white" stroke="black" stroke-width="2"/>
<path d="M17.6958 26.9717C17.6958 25.7559 17.9839 24.7793 18.5601 24.042C19.1362 23.2998 19.8906 22.9287 20.8232 22.9287C21.751 22.9287 22.4858 23.2461 23.0278 23.8809V19.75H24.3828V31H23.1377L23.0718 30.1504C22.5298 30.8145 21.7754 31.1465 20.8086 31.1465C19.8906 31.1465 19.1411 30.7705 18.5601 30.0186C17.9839 29.2666 17.6958 28.2852 17.6958 27.0742V26.9717ZM19.0508 27.1255C19.0508 28.0239 19.2363 28.7271 19.6074 29.2349C19.9785 29.7427 20.4912 29.9966 21.1455 29.9966C22.0049 29.9966 22.6323 29.6108 23.0278 28.8394V25.1992C22.6226 24.4521 22 24.0786 21.1602 24.0786C20.4961 24.0786 19.9785 24.335 19.6074 24.8477C19.2363 25.3604 19.0508 26.1196 19.0508 27.1255ZM26.1333 26.9644C26.1333 26.188 26.2847 25.4897 26.5874 24.8696C26.895 24.2495 27.3198 23.771 27.8618 23.4341C28.4087 23.0972 29.0312 22.9287 29.7295 22.9287C30.8086 22.9287 31.6802 23.3022 32.3442 24.0493C33.0132 24.7964 33.3477 25.79 33.3477 27.0303V27.1255C33.3477 27.897 33.1987 28.5903 32.9009 29.2056C32.6079 29.8159 32.1855 30.292 31.6338 30.6338C31.0869 30.9756 30.457 31.1465 29.7441 31.1465C28.6699 31.1465 27.7983 30.7729 27.1294 30.0259C26.4653 29.2788 26.1333 28.29 26.1333 27.0596V26.9644ZM27.4956 27.1255C27.4956 28.0044 27.6982 28.71 28.1035 29.2422C28.5137 29.7744 29.0605 30.0405 29.7441 30.0405C30.4326 30.0405 30.9795 29.772 31.3848 29.2349C31.79 28.6929 31.9927 27.936 31.9927 26.9644C31.9927 26.0952 31.7852 25.3921 31.3701 24.855C30.96 24.313 30.4131 24.042 29.7295 24.042C29.0605 24.042 28.521 24.3081 28.1108 24.8403C27.7007 25.3726 27.4956 26.1343 27.4956 27.1255ZM34.7246 26.9717C34.7246 25.7363 35.0103 24.7549 35.5815 24.0273C36.1528 23.2949 36.9097 22.9287 37.8521 22.9287C38.8188 22.9287 39.5732 23.2705 40.1152 23.9541L40.1812 23.0752H41.4189V30.8096C41.4189 31.835 41.1138 32.6431 40.5034 33.2339C39.8979 33.8247 39.0825 34.1201 38.0571 34.1201C37.4858 34.1201 36.9268 33.998 36.3799 33.7539C35.833 33.5098 35.4155 33.1753 35.1274 32.7505L35.8306 31.9375C36.4116 32.6553 37.1221 33.0142 37.9619 33.0142C38.6211 33.0142 39.1338 32.8286 39.5 32.4575C39.8711 32.0864 40.0566 31.564 40.0566 30.8901V30.209C39.5146 30.834 38.7749 31.1465 37.8374 31.1465C36.9097 31.1465 36.1577 30.7729 35.5815 30.0259C35.0103 29.2788 34.7246 28.2607 34.7246 26.9717ZM36.0869 27.1255C36.0869 28.019 36.27 28.7222 36.6362 29.2349C37.0024 29.7427 37.5151 29.9966 38.1743 29.9966C39.0288 29.9966 39.6562 29.6084 40.0566 28.832V25.2139C39.6416 24.457 39.019 24.0786 38.189 24.0786C37.5298 24.0786 37.0146 24.335 36.6436 24.8477C36.2725 25.3604 36.0869 26.1196 36.0869 27.1255ZM48.084 28.8979C48.084 28.5317 47.9448 28.2485 47.6665 28.0483C47.3931 27.8433 46.9121 27.6675 46.2236 27.521C45.54 27.3745 44.9956 27.1987 44.5903 26.9937C44.1899 26.7886 43.8921 26.5444 43.6968 26.2612C43.5063 25.978 43.4111 25.6411 43.4111 25.2505C43.4111 24.6011 43.6846 24.0518 44.2314 23.6025C44.7832 23.1533 45.4863 22.9287 46.3408 22.9287C47.2393 22.9287 47.9668 23.1606 48.5234 23.6245C49.085 24.0884 49.3657 24.6816 49.3657 25.4043H48.0034C48.0034 25.0332 47.8447 24.7134 47.5273 24.4448C47.2148 24.1763 46.8193 24.042 46.3408 24.042C45.8477 24.042 45.4619 24.1494 45.1836 24.3643C44.9053 24.5791 44.7661 24.8599 44.7661 25.2065C44.7661 25.5337 44.8955 25.7803 45.1543 25.9463C45.4131 26.1123 45.8794 26.271 46.5532 26.4224C47.2319 26.5737 47.7812 26.7544 48.2012 26.9644C48.6211 27.1743 48.9312 27.4282 49.1313 27.7261C49.3364 28.019 49.439 28.3779 49.439 28.8027C49.439 29.5107 49.1558 30.0796 48.5894 30.5093C48.0229 30.9341 47.2881 31.1465 46.3848 31.1465C45.75 31.1465 45.1885 31.0342 44.7002 30.8096C44.2119 30.585 43.8286 30.2725 43.5503 29.8721C43.2769 29.4668 43.1401 29.0298 43.1401 28.561H44.4951C44.5195 29.0151 44.7002 29.3765 45.0371 29.645C45.3789 29.9087 45.8281 30.0405 46.3848 30.0405C46.8975 30.0405 47.3076 29.938 47.6152 29.7329C47.9277 29.5229 48.084 29.2446 48.084 28.8979Z" fill="black"/>
</svg>
